<mxfile host="app.diagrams.net" modified="2023-09-28T07:17:29.771Z" agent="Mozilla/5.0 (Windows NT 10.0; Win64; x64) AppleWebKit/537.36 (KHTML, like Gecko) Chrome/117.0.0.0 Safari/537.36" etag="zs47Fj_SUFgIOFhEAxg7" version="21.7.0" type="github">
  <diagram name="第 1 页" id="sEmoTQUcqIiDPRTo47MQ">
    <mxGraphModel dx="995" dy="628" grid="1" gridSize="10" guides="1" tooltips="1" connect="1" arrows="1" fold="1" page="1" pageScale="1" pageWidth="827" pageHeight="1169" math="0" shadow="0">
      <root>
        <mxCell id="0" />
        <mxCell id="1" parent="0" />
        <mxCell id="Y9SR4yTdfBdHoWT3PT7x-5" style="edgeStyle=orthogonalEdgeStyle;rounded=0;orthogonalLoop=1;jettySize=auto;html=1;entryX=0;entryY=0.5;entryDx=0;entryDy=0;" edge="1" parent="1" source="Y9SR4yTdfBdHoWT3PT7x-1" target="Y9SR4yTdfBdHoWT3PT7x-3">
          <mxGeometry relative="1" as="geometry" />
        </mxCell>
        <mxCell id="Y9SR4yTdfBdHoWT3PT7x-1" value="传输网" style="rounded=1;whiteSpace=wrap;html=1;" vertex="1" parent="1">
          <mxGeometry x="220" y="330" width="70" height="30" as="geometry" />
        </mxCell>
        <mxCell id="Y9SR4yTdfBdHoWT3PT7x-4" style="edgeStyle=orthogonalEdgeStyle;rounded=0;orthogonalLoop=1;jettySize=auto;html=1;entryX=0;entryY=0.5;entryDx=0;entryDy=0;" edge="1" parent="1" source="Y9SR4yTdfBdHoWT3PT7x-2" target="Y9SR4yTdfBdHoWT3PT7x-1">
          <mxGeometry relative="1" as="geometry" />
        </mxCell>
        <mxCell id="Y9SR4yTdfBdHoWT3PT7x-11" style="edgeStyle=orthogonalEdgeStyle;rounded=0;orthogonalLoop=1;jettySize=auto;html=1;exitX=0.5;exitY=1;exitDx=0;exitDy=0;" edge="1" parent="1" source="Y9SR4yTdfBdHoWT3PT7x-2" target="Y9SR4yTdfBdHoWT3PT7x-9">
          <mxGeometry relative="1" as="geometry" />
        </mxCell>
        <mxCell id="Y9SR4yTdfBdHoWT3PT7x-2" value="核心网" style="rounded=1;whiteSpace=wrap;html=1;" vertex="1" parent="1">
          <mxGeometry x="100" y="330" width="76" height="30" as="geometry" />
        </mxCell>
        <mxCell id="Y9SR4yTdfBdHoWT3PT7x-3" value="华为基站" style="rounded=1;whiteSpace=wrap;html=1;" vertex="1" parent="1">
          <mxGeometry x="338" y="330" width="76" height="30" as="geometry" />
        </mxCell>
        <mxCell id="Y9SR4yTdfBdHoWT3PT7x-6" value="专属私网" style="text;strokeColor=none;align=center;fillColor=none;html=1;verticalAlign=middle;whiteSpace=wrap;rounded=0;" vertex="1" parent="1">
          <mxGeometry x="225" y="300" width="60" height="30" as="geometry" />
        </mxCell>
        <mxCell id="Y9SR4yTdfBdHoWT3PT7x-7" value="皮基站" style="rounded=1;whiteSpace=wrap;html=1;" vertex="1" parent="1">
          <mxGeometry x="330" y="420" width="76" height="30" as="geometry" />
        </mxCell>
        <mxCell id="Y9SR4yTdfBdHoWT3PT7x-13" style="edgeStyle=orthogonalEdgeStyle;rounded=0;orthogonalLoop=1;jettySize=auto;html=1;" edge="1" parent="1" source="Y9SR4yTdfBdHoWT3PT7x-9">
          <mxGeometry relative="1" as="geometry">
            <mxPoint x="209.9999999999999" y="435" as="targetPoint" />
          </mxGeometry>
        </mxCell>
        <mxCell id="Y9SR4yTdfBdHoWT3PT7x-9" value="皮基站网关" style="rounded=1;whiteSpace=wrap;html=1;" vertex="1" parent="1">
          <mxGeometry x="103" y="420" width="70" height="30" as="geometry" />
        </mxCell>
        <mxCell id="Y9SR4yTdfBdHoWT3PT7x-14" style="edgeStyle=orthogonalEdgeStyle;rounded=0;orthogonalLoop=1;jettySize=auto;html=1;exitX=1;exitY=0.5;exitDx=0;exitDy=0;" edge="1" parent="1" source="Y9SR4yTdfBdHoWT3PT7x-12">
          <mxGeometry relative="1" as="geometry">
            <mxPoint x="329.9999999999999" y="435.33333333333337" as="targetPoint" />
          </mxGeometry>
        </mxCell>
        <mxCell id="Y9SR4yTdfBdHoWT3PT7x-12" value="宽带网" style="rounded=1;whiteSpace=wrap;html=1;" vertex="1" parent="1">
          <mxGeometry x="215" y="420" width="70" height="30" as="geometry" />
        </mxCell>
        <mxCell id="Y9SR4yTdfBdHoWT3PT7x-15" value="1、安装块&lt;br&gt;2、几乎不要走设计&lt;br&gt;3、不用专门建设光纤" style="text;strokeColor=none;align=left;fillColor=none;html=1;verticalAlign=middle;whiteSpace=wrap;rounded=0;" vertex="1" parent="1">
          <mxGeometry x="330" y="460" width="122" height="50" as="geometry" />
        </mxCell>
        <mxCell id="Y9SR4yTdfBdHoWT3PT7x-16" value="专属私网" style="text;strokeColor=none;align=center;fillColor=none;html=1;verticalAlign=middle;whiteSpace=wrap;rounded=0;" vertex="1" parent="1">
          <mxGeometry x="70" y="370" width="60" height="30" as="geometry" />
        </mxCell>
        <mxCell id="Y9SR4yTdfBdHoWT3PT7x-18" value="1、上报、查勘、设计、施工、验收、单验。。。时间长&lt;br&gt;2、传输网络要部署&lt;br&gt;3、价格贵" style="text;strokeColor=none;align=left;fillColor=none;html=1;verticalAlign=middle;whiteSpace=wrap;rounded=0;" vertex="1" parent="1">
          <mxGeometry x="330" y="270" width="122" height="30" as="geometry" />
        </mxCell>
        <mxCell id="Y9SR4yTdfBdHoWT3PT7x-19" value="广域网" style="text;strokeColor=none;align=center;fillColor=none;html=1;verticalAlign=middle;whiteSpace=wrap;rounded=0;" vertex="1" parent="1">
          <mxGeometry x="220" y="390" width="60" height="30" as="geometry" />
        </mxCell>
        <mxCell id="Y9SR4yTdfBdHoWT3PT7x-20" value="皮基站" style="rounded=1;whiteSpace=wrap;html=1;" vertex="1" parent="1">
          <mxGeometry x="82" y="610" width="100" height="30" as="geometry" />
        </mxCell>
        <mxCell id="Y9SR4yTdfBdHoWT3PT7x-21" value="大功率" style="rounded=1;whiteSpace=wrap;html=1;" vertex="1" parent="1">
          <mxGeometry x="215" y="560" width="76" height="30" as="geometry" />
        </mxCell>
        <mxCell id="Y9SR4yTdfBdHoWT3PT7x-22" value="中功率" style="rounded=1;whiteSpace=wrap;html=1;" vertex="1" parent="1">
          <mxGeometry x="215" y="610" width="76" height="30" as="geometry" />
        </mxCell>
        <mxCell id="Y9SR4yTdfBdHoWT3PT7x-23" value="家庭级(企业级)" style="rounded=1;whiteSpace=wrap;html=1;" vertex="1" parent="1">
          <mxGeometry x="218" y="670" width="76" height="30" as="geometry" />
        </mxCell>
        <mxCell id="Y9SR4yTdfBdHoWT3PT7x-24" value="1、要走设计，跟宏站一样&lt;br&gt;2、不要设计光路" style="text;strokeColor=none;align=left;fillColor=none;html=1;verticalAlign=middle;whiteSpace=wrap;rounded=0;" vertex="1" parent="1">
          <mxGeometry x="302" y="550" width="150" height="50" as="geometry" />
        </mxCell>
        <mxCell id="Y9SR4yTdfBdHoWT3PT7x-25" value="1、要装室外，部分装天线&lt;br&gt;2、也不需要设计光路&lt;br&gt;3、比家庭级要覆盖好一点" style="text;strokeColor=none;align=left;fillColor=none;html=1;verticalAlign=middle;whiteSpace=wrap;rounded=0;" vertex="1" parent="1">
          <mxGeometry x="298" y="600" width="150" height="50" as="geometry" />
        </mxCell>
        <mxCell id="Y9SR4yTdfBdHoWT3PT7x-26" value="1、装室内，家用(30平方)&lt;br&gt;2、也不需要设计光路&lt;br&gt;3、管控比较困难，容易丢&lt;br&gt;4、主要解决打电话问题" style="text;strokeColor=none;align=left;fillColor=none;html=1;verticalAlign=middle;whiteSpace=wrap;rounded=0;" vertex="1" parent="1">
          <mxGeometry x="298" y="670" width="150" height="50" as="geometry" />
        </mxCell>
      </root>
    </mxGraphModel>
  </diagram>
</mxfile>
